<mxfile host="app.diagrams.net" modified="2023-04-10T15:10:35.688Z" agent="Mozilla/5.0 (Windows NT 10.0; Win64; x64) AppleWebKit/537.36 (KHTML, like Gecko) Chrome/112.0.0.0 Safari/537.36 Edg/112.0.1722.34" etag="QdmMLUGm-IJNxXY4luYo" version="21.1.5" type="device" pages="10">
  <diagram id="O0uyRRyXWZqcoPbqji34" name="01 - int">
    <mxGraphModel dx="1434" dy="774" grid="1" gridSize="10" guides="1" tooltips="1" connect="1" arrows="1" fold="1" page="1" pageScale="1" pageWidth="1920" pageHeight="1200" math="0" shadow="0">
      <root>
        <mxCell id="0" />
        <mxCell id="1" parent="0" />
        <mxCell id="Bd5h813VBlMrE4Ein1ER-1" value="Microfrontends" style="rounded=0;whiteSpace=wrap;html=1;fillColor=#dae8fc;strokeColor=#6c8ebf;fontSize=32;" parent="1" vertex="1">
          <mxGeometry x="640" y="310" width="300" height="110" as="geometry" />
        </mxCell>
      </root>
    </mxGraphModel>
  </diagram>
  <diagram id="3zTEeTbYXzCrsaLW_YsF" name="02 - what">
    <mxGraphModel dx="1434" dy="774" grid="1" gridSize="10" guides="1" tooltips="1" connect="1" arrows="1" fold="1" page="1" pageScale="1" pageWidth="1920" pageHeight="1200" math="0" shadow="0">
      <root>
        <mxCell id="Gvev6P6lr2s0z79kHubu-0" />
        <mxCell id="Gvev6P6lr2s0z79kHubu-1" parent="Gvev6P6lr2s0z79kHubu-0" />
        <mxCell id="VDuhimrHQUb0AQqyqWnX-0" value="...so...what&#39;s a micro frontend?" style="rounded=0;whiteSpace=wrap;html=1;fillColor=#f5f5f5;strokeColor=#666666;fontSize=32;fontColor=#333333;" parent="Gvev6P6lr2s0z79kHubu-1" vertex="1">
          <mxGeometry x="550" y="410" width="370" height="110" as="geometry" />
        </mxCell>
      </root>
    </mxGraphModel>
  </diagram>
  <diagram id="yZnkObXNBRUXwmYaBqcr" name="03 - mock">
    <mxGraphModel dx="1434" dy="774" grid="1" gridSize="10" guides="1" tooltips="1" connect="1" arrows="1" fold="1" page="1" pageScale="1" pageWidth="1920" pageHeight="1200" math="0" shadow="0">
      <root>
        <mxCell id="CZkH2obm6IsShGbHKT_d-0" />
        <mxCell id="CZkH2obm6IsShGbHKT_d-1" parent="CZkH2obm6IsShGbHKT_d-0" />
        <mxCell id="dEji328S6bRh0UGUdXAu-0" value="" style="strokeWidth=1;shadow=0;dashed=0;align=center;html=1;shape=mxgraph.mockup.containers.browserWindow;rSize=0;strokeColor2=#008cff;strokeColor3=#c4c4c4;mainText=,;recursiveResize=0;strokeColor=#8F8F8F;opacity=80;" parent="CZkH2obm6IsShGbHKT_d-1" vertex="1">
          <mxGeometry x="500" y="290" width="460" height="380" as="geometry" />
        </mxCell>
        <mxCell id="dEji328S6bRh0UGUdXAu-1" value="" style="strokeWidth=1;shadow=0;dashed=0;align=center;html=1;shape=mxgraph.mockup.containers.anchor;fontSize=17;fontColor=#666666;align=left;" parent="dEji328S6bRh0UGUdXAu-0" vertex="1">
          <mxGeometry x="60" y="12" width="110" height="26" as="geometry" />
        </mxCell>
        <mxCell id="dEji328S6bRh0UGUdXAu-2" value="app.com" style="strokeWidth=1;shadow=0;dashed=0;align=center;html=1;shape=mxgraph.mockup.containers.anchor;rSize=0;fontSize=17;fontColor=#666666;align=left;" parent="dEji328S6bRh0UGUdXAu-0" vertex="1">
          <mxGeometry x="130" y="60" width="250" height="26" as="geometry" />
        </mxCell>
        <mxCell id="dEji328S6bRh0UGUdXAu-3" value="" style="rounded=0;whiteSpace=wrap;html=1;" parent="dEji328S6bRh0UGUdXAu-0" vertex="1">
          <mxGeometry y="110" width="460" height="40" as="geometry" />
        </mxCell>
        <mxCell id="dEji328S6bRh0UGUdXAu-4" value="My Shop" style="text;html=1;strokeColor=none;fillColor=none;align=center;verticalAlign=middle;whiteSpace=wrap;rounded=0;" parent="dEji328S6bRh0UGUdXAu-0" vertex="1">
          <mxGeometry x="10" y="120" width="60" height="20" as="geometry" />
        </mxCell>
        <mxCell id="dEji328S6bRh0UGUdXAu-5" value="Cart" style="text;html=1;strokeColor=none;fillColor=none;align=center;verticalAlign=middle;whiteSpace=wrap;rounded=0;" parent="dEji328S6bRh0UGUdXAu-0" vertex="1">
          <mxGeometry x="390" y="120" width="60" height="20" as="geometry" />
        </mxCell>
        <mxCell id="dEji328S6bRh0UGUdXAu-7" value="Search..." style="rounded=1;whiteSpace=wrap;html=1;fontStyle=2;align=left;fontColor=#999999;fontSize=10;spacingLeft=4;" parent="dEji328S6bRh0UGUdXAu-0" vertex="1">
          <mxGeometry x="270" y="117.5" width="120" height="25" as="geometry" />
        </mxCell>
        <mxCell id="dEji328S6bRh0UGUdXAu-11" value="" style="rounded=0;whiteSpace=wrap;html=1;strokeWidth=1;fillColor=none;fontSize=10;fontColor=#999999;align=left;strokeColor=#6B6B6B;" parent="dEji328S6bRh0UGUdXAu-0" vertex="1">
          <mxGeometry x="30" y="178" width="120" height="142" as="geometry" />
        </mxCell>
        <mxCell id="dEji328S6bRh0UGUdXAu-9" value="" style="outlineConnect=0;fontColor=#232F3E;gradientColor=none;strokeColor=none;dashed=0;verticalLabelPosition=bottom;verticalAlign=top;align=center;html=1;fontSize=12;fontStyle=0;aspect=fixed;pointerEvents=1;shape=mxgraph.aws4.container_registry_image;strokeWidth=1;fillColor=#6E6E6E;" parent="dEji328S6bRh0UGUdXAu-0" vertex="1">
          <mxGeometry x="60" y="190" width="60" height="60" as="geometry" />
        </mxCell>
        <mxCell id="dEji328S6bRh0UGUdXAu-12" value="Product" style="text;html=1;strokeColor=none;fillColor=none;align=center;verticalAlign=middle;whiteSpace=wrap;rounded=0;fontSize=12;" parent="dEji328S6bRh0UGUdXAu-0" vertex="1">
          <mxGeometry x="40" y="260" width="40" height="20" as="geometry" />
        </mxCell>
        <mxCell id="dEji328S6bRh0UGUdXAu-13" value="$10" style="text;html=1;strokeColor=none;fillColor=none;align=center;verticalAlign=middle;whiteSpace=wrap;rounded=0;fontSize=12;" parent="dEji328S6bRh0UGUdXAu-0" vertex="1">
          <mxGeometry x="105" y="260" width="40" height="20" as="geometry" />
        </mxCell>
        <mxCell id="dEji328S6bRh0UGUdXAu-14" value="Add To Cart" style="rounded=0;whiteSpace=wrap;html=1;strokeWidth=1;fillColor=none;fontSize=11;fontColor=#000000;align=center;" parent="dEji328S6bRh0UGUdXAu-0" vertex="1">
          <mxGeometry x="75" y="290" width="70" height="25" as="geometry" />
        </mxCell>
        <mxCell id="dEji328S6bRh0UGUdXAu-15" value="" style="rounded=0;whiteSpace=wrap;html=1;strokeWidth=1;fillColor=none;fontSize=10;fontColor=#999999;align=left;strokeColor=#6B6B6B;" parent="dEji328S6bRh0UGUdXAu-0" vertex="1">
          <mxGeometry x="170" y="178" width="120" height="142" as="geometry" />
        </mxCell>
        <mxCell id="dEji328S6bRh0UGUdXAu-16" value="" style="outlineConnect=0;fontColor=#232F3E;gradientColor=none;strokeColor=none;dashed=0;verticalLabelPosition=bottom;verticalAlign=top;align=center;html=1;fontSize=12;fontStyle=0;aspect=fixed;pointerEvents=1;shape=mxgraph.aws4.container_registry_image;strokeWidth=1;fillColor=#6E6E6E;" parent="dEji328S6bRh0UGUdXAu-0" vertex="1">
          <mxGeometry x="200" y="190" width="60" height="60" as="geometry" />
        </mxCell>
        <mxCell id="dEji328S6bRh0UGUdXAu-17" value="Product" style="text;html=1;strokeColor=none;fillColor=none;align=center;verticalAlign=middle;whiteSpace=wrap;rounded=0;fontSize=12;" parent="dEji328S6bRh0UGUdXAu-0" vertex="1">
          <mxGeometry x="180" y="260" width="40" height="20" as="geometry" />
        </mxCell>
        <mxCell id="dEji328S6bRh0UGUdXAu-18" value="$10" style="text;html=1;strokeColor=none;fillColor=none;align=center;verticalAlign=middle;whiteSpace=wrap;rounded=0;fontSize=12;" parent="dEji328S6bRh0UGUdXAu-0" vertex="1">
          <mxGeometry x="245" y="260" width="40" height="20" as="geometry" />
        </mxCell>
        <mxCell id="dEji328S6bRh0UGUdXAu-19" value="Add To Cart" style="rounded=0;whiteSpace=wrap;html=1;strokeWidth=1;fillColor=none;fontSize=11;fontColor=#000000;align=center;" parent="dEji328S6bRh0UGUdXAu-0" vertex="1">
          <mxGeometry x="215" y="290" width="70" height="25" as="geometry" />
        </mxCell>
        <mxCell id="dEji328S6bRh0UGUdXAu-20" value="" style="rounded=0;whiteSpace=wrap;html=1;strokeWidth=1;fillColor=none;fontSize=10;fontColor=#999999;align=left;strokeColor=#6B6B6B;" parent="dEji328S6bRh0UGUdXAu-0" vertex="1">
          <mxGeometry x="310" y="178" width="120" height="142" as="geometry" />
        </mxCell>
        <mxCell id="dEji328S6bRh0UGUdXAu-21" value="" style="outlineConnect=0;fontColor=#232F3E;gradientColor=none;strokeColor=none;dashed=0;verticalLabelPosition=bottom;verticalAlign=top;align=center;html=1;fontSize=12;fontStyle=0;aspect=fixed;pointerEvents=1;shape=mxgraph.aws4.container_registry_image;strokeWidth=1;fillColor=#6E6E6E;" parent="dEji328S6bRh0UGUdXAu-0" vertex="1">
          <mxGeometry x="340" y="190" width="60" height="60" as="geometry" />
        </mxCell>
        <mxCell id="dEji328S6bRh0UGUdXAu-22" value="Product" style="text;html=1;strokeColor=none;fillColor=none;align=center;verticalAlign=middle;whiteSpace=wrap;rounded=0;fontSize=12;" parent="dEji328S6bRh0UGUdXAu-0" vertex="1">
          <mxGeometry x="320" y="260" width="40" height="20" as="geometry" />
        </mxCell>
        <mxCell id="dEji328S6bRh0UGUdXAu-23" value="$10" style="text;html=1;strokeColor=none;fillColor=none;align=center;verticalAlign=middle;whiteSpace=wrap;rounded=0;fontSize=12;" parent="dEji328S6bRh0UGUdXAu-0" vertex="1">
          <mxGeometry x="385" y="260" width="40" height="20" as="geometry" />
        </mxCell>
        <mxCell id="dEji328S6bRh0UGUdXAu-24" value="Add To Cart" style="rounded=0;whiteSpace=wrap;html=1;strokeWidth=1;fillColor=none;fontSize=11;fontColor=#000000;align=center;" parent="dEji328S6bRh0UGUdXAu-0" vertex="1">
          <mxGeometry x="355" y="290" width="70" height="25" as="geometry" />
        </mxCell>
        <mxCell id="dEji328S6bRh0UGUdXAu-25" value="" style="strokeWidth=1;shadow=0;dashed=0;align=center;html=1;shape=mxgraph.mockup.containers.browserWindow;rSize=0;strokeColor2=#008cff;strokeColor3=#c4c4c4;mainText=,;recursiveResize=0;strokeColor=#8F8F8F;opacity=80;" parent="CZkH2obm6IsShGbHKT_d-1" vertex="1">
          <mxGeometry x="1000" y="290" width="460" height="380" as="geometry" />
        </mxCell>
        <mxCell id="dEji328S6bRh0UGUdXAu-26" value="" style="strokeWidth=1;shadow=0;dashed=0;align=center;html=1;shape=mxgraph.mockup.containers.anchor;fontSize=17;fontColor=#666666;align=left;" parent="dEji328S6bRh0UGUdXAu-25" vertex="1">
          <mxGeometry x="60" y="12" width="110" height="26" as="geometry" />
        </mxCell>
        <mxCell id="dEji328S6bRh0UGUdXAu-27" value="app.com" style="strokeWidth=1;shadow=0;dashed=0;align=center;html=1;shape=mxgraph.mockup.containers.anchor;rSize=0;fontSize=17;fontColor=#666666;align=left;" parent="dEji328S6bRh0UGUdXAu-25" vertex="1">
          <mxGeometry x="130" y="60" width="250" height="26" as="geometry" />
        </mxCell>
        <mxCell id="dEji328S6bRh0UGUdXAu-28" value="" style="rounded=0;whiteSpace=wrap;html=1;" parent="dEji328S6bRh0UGUdXAu-25" vertex="1">
          <mxGeometry y="110" width="460" height="40" as="geometry" />
        </mxCell>
        <mxCell id="dEji328S6bRh0UGUdXAu-29" value="My Shop" style="text;html=1;strokeColor=none;fillColor=none;align=center;verticalAlign=middle;whiteSpace=wrap;rounded=0;" parent="dEji328S6bRh0UGUdXAu-25" vertex="1">
          <mxGeometry x="10" y="120" width="60" height="20" as="geometry" />
        </mxCell>
        <mxCell id="dEji328S6bRh0UGUdXAu-30" value="Cart" style="text;html=1;strokeColor=none;fillColor=none;align=center;verticalAlign=middle;whiteSpace=wrap;rounded=0;" parent="dEji328S6bRh0UGUdXAu-25" vertex="1">
          <mxGeometry x="390" y="120" width="60" height="20" as="geometry" />
        </mxCell>
        <mxCell id="dEji328S6bRh0UGUdXAu-31" value="Search..." style="rounded=1;whiteSpace=wrap;html=1;fontStyle=2;align=left;fontColor=#999999;fontSize=10;spacingLeft=4;" parent="dEji328S6bRh0UGUdXAu-25" vertex="1">
          <mxGeometry x="270" y="117.5" width="120" height="25" as="geometry" />
        </mxCell>
        <mxCell id="dEji328S6bRh0UGUdXAu-50" value="" style="rounded=0;whiteSpace=wrap;html=1;" parent="dEji328S6bRh0UGUdXAu-25" vertex="1">
          <mxGeometry x="40" y="170" width="380" height="40" as="geometry" />
        </mxCell>
        <mxCell id="dEji328S6bRh0UGUdXAu-51" value="Product&amp;nbsp;" style="text;html=1;strokeColor=none;fillColor=none;align=center;verticalAlign=middle;whiteSpace=wrap;rounded=0;" parent="dEji328S6bRh0UGUdXAu-25" vertex="1">
          <mxGeometry x="50" y="180" width="60" height="20" as="geometry" />
        </mxCell>
        <mxCell id="dEji328S6bRh0UGUdXAu-52" value="Qty 1" style="text;html=1;strokeColor=none;fillColor=none;align=center;verticalAlign=middle;whiteSpace=wrap;rounded=0;" parent="dEji328S6bRh0UGUdXAu-25" vertex="1">
          <mxGeometry x="270" y="180" width="60" height="20" as="geometry" />
        </mxCell>
        <mxCell id="dEji328S6bRh0UGUdXAu-53" value="$10" style="text;html=1;strokeColor=none;fillColor=none;align=center;verticalAlign=middle;whiteSpace=wrap;rounded=0;" parent="dEji328S6bRh0UGUdXAu-25" vertex="1">
          <mxGeometry x="350" y="180" width="60" height="20" as="geometry" />
        </mxCell>
        <mxCell id="dEji328S6bRh0UGUdXAu-54" value="" style="rounded=0;whiteSpace=wrap;html=1;" parent="dEji328S6bRh0UGUdXAu-25" vertex="1">
          <mxGeometry x="40" y="210" width="380" height="40" as="geometry" />
        </mxCell>
        <mxCell id="dEji328S6bRh0UGUdXAu-55" value="Product&amp;nbsp;" style="text;html=1;strokeColor=none;fillColor=none;align=center;verticalAlign=middle;whiteSpace=wrap;rounded=0;" parent="dEji328S6bRh0UGUdXAu-25" vertex="1">
          <mxGeometry x="50" y="220" width="60" height="20" as="geometry" />
        </mxCell>
        <mxCell id="dEji328S6bRh0UGUdXAu-56" value="Qty 1" style="text;html=1;strokeColor=none;fillColor=none;align=center;verticalAlign=middle;whiteSpace=wrap;rounded=0;" parent="dEji328S6bRh0UGUdXAu-25" vertex="1">
          <mxGeometry x="270" y="220" width="60" height="20" as="geometry" />
        </mxCell>
        <mxCell id="dEji328S6bRh0UGUdXAu-57" value="$10" style="text;html=1;strokeColor=none;fillColor=none;align=center;verticalAlign=middle;whiteSpace=wrap;rounded=0;" parent="dEji328S6bRh0UGUdXAu-25" vertex="1">
          <mxGeometry x="350" y="220" width="60" height="20" as="geometry" />
        </mxCell>
        <mxCell id="dEji328S6bRh0UGUdXAu-58" value="" style="rounded=0;whiteSpace=wrap;html=1;" parent="dEji328S6bRh0UGUdXAu-25" vertex="1">
          <mxGeometry x="40" y="250" width="380" height="40" as="geometry" />
        </mxCell>
        <mxCell id="dEji328S6bRh0UGUdXAu-59" value="Product&amp;nbsp;" style="text;html=1;strokeColor=none;fillColor=none;align=center;verticalAlign=middle;whiteSpace=wrap;rounded=0;" parent="dEji328S6bRh0UGUdXAu-25" vertex="1">
          <mxGeometry x="50" y="260" width="60" height="20" as="geometry" />
        </mxCell>
        <mxCell id="dEji328S6bRh0UGUdXAu-60" value="Qty 1" style="text;html=1;strokeColor=none;fillColor=none;align=center;verticalAlign=middle;whiteSpace=wrap;rounded=0;" parent="dEji328S6bRh0UGUdXAu-25" vertex="1">
          <mxGeometry x="270" y="260" width="60" height="20" as="geometry" />
        </mxCell>
        <mxCell id="dEji328S6bRh0UGUdXAu-61" value="$10" style="text;html=1;strokeColor=none;fillColor=none;align=center;verticalAlign=middle;whiteSpace=wrap;rounded=0;" parent="dEji328S6bRh0UGUdXAu-25" vertex="1">
          <mxGeometry x="350" y="260" width="60" height="20" as="geometry" />
        </mxCell>
        <mxCell id="dEji328S6bRh0UGUdXAu-63" value="" style="rounded=0;whiteSpace=wrap;html=1;" parent="dEji328S6bRh0UGUdXAu-25" vertex="1">
          <mxGeometry x="240" y="300" width="180" height="40" as="geometry" />
        </mxCell>
        <mxCell id="dEji328S6bRh0UGUdXAu-64" value="Total" style="text;html=1;strokeColor=none;fillColor=none;align=center;verticalAlign=middle;whiteSpace=wrap;rounded=0;fontStyle=1" parent="dEji328S6bRh0UGUdXAu-25" vertex="1">
          <mxGeometry x="270" y="310" width="60" height="20" as="geometry" />
        </mxCell>
        <mxCell id="dEji328S6bRh0UGUdXAu-65" value="$30" style="text;html=1;strokeColor=none;fillColor=none;align=center;verticalAlign=middle;whiteSpace=wrap;rounded=0;" parent="dEji328S6bRh0UGUdXAu-25" vertex="1">
          <mxGeometry x="350" y="310" width="60" height="20" as="geometry" />
        </mxCell>
        <mxCell id="dEji328S6bRh0UGUdXAu-67" value="Shopping Cart" style="rounded=0;whiteSpace=wrap;html=1;strokeColor=#6c8ebf;strokeWidth=1;fillColor=#dae8fc;fontSize=37;align=center;fontStyle=1;shadow=1;" parent="CZkH2obm6IsShGbHKT_d-1" vertex="1">
          <mxGeometry x="1050" y="680" width="360" height="60" as="geometry" />
        </mxCell>
        <mxCell id="dEji328S6bRh0UGUdXAu-68" value="Product Listing" style="rounded=0;whiteSpace=wrap;html=1;strokeColor=#6c8ebf;strokeWidth=1;fillColor=#dae8fc;fontSize=37;align=center;fontStyle=1;shadow=1;" parent="CZkH2obm6IsShGbHKT_d-1" vertex="1">
          <mxGeometry x="550" y="680" width="360" height="60" as="geometry" />
        </mxCell>
      </root>
    </mxGraphModel>
  </diagram>
  <diagram name="04 - app" id="avkM07SWcK6k4jqwL5t-">
    <mxGraphModel dx="819" dy="442" grid="1" gridSize="10" guides="1" tooltips="1" connect="1" arrows="1" fold="1" page="1" pageScale="1" pageWidth="1920" pageHeight="1200" math="0" shadow="0">
      <root>
        <mxCell id="cFNt4LRYpBDefOqHRxLx-0" />
        <mxCell id="cFNt4LRYpBDefOqHRxLx-1" parent="cFNt4LRYpBDefOqHRxLx-0" />
        <mxCell id="Sdan_CvFGvyzcEF7iB_X-0" value="React/Vue/Angular&lt;br style=&quot;font-size: 18px&quot;&gt;Single Page Application" style="rounded=0;whiteSpace=wrap;html=1;fontSize=18;fontStyle=1;fillColor=#dae8fc;strokeColor=#6c8ebf;shadow=1;" parent="cFNt4LRYpBDefOqHRxLx-1" vertex="1">
          <mxGeometry x="360" y="420" width="420" height="60" as="geometry" />
        </mxCell>
        <mxCell id="Sdan_CvFGvyzcEF7iB_X-1" value="" style="rounded=0;whiteSpace=wrap;html=1;fontSize=14;fillColor=#f5f5f5;strokeColor=#666666;fontColor=#333333;shadow=1;" parent="cFNt4LRYpBDefOqHRxLx-1" vertex="1">
          <mxGeometry x="360" y="480" width="420" height="140" as="geometry" />
        </mxCell>
        <mxCell id="Sdan_CvFGvyzcEF7iB_X-3" value="ShoppingCart" style="rounded=0;whiteSpace=wrap;html=1;fontSize=18;" parent="cFNt4LRYpBDefOqHRxLx-1" vertex="1">
          <mxGeometry x="600" y="510" width="150" height="80" as="geometry" />
        </mxCell>
        <mxCell id="Sdan_CvFGvyzcEF7iB_X-6" value="&lt;i&gt;Monolithic Single Page Application&lt;/i&gt;" style="text;html=1;strokeColor=none;fillColor=none;align=center;verticalAlign=middle;whiteSpace=wrap;rounded=0;shadow=1;fontSize=12;" parent="cFNt4LRYpBDefOqHRxLx-1" vertex="1">
          <mxGeometry x="470" y="630" width="200" height="20" as="geometry" />
        </mxCell>
        <mxCell id="Sdan_CvFGvyzcEF7iB_X-7" value="ProductListing" style="rounded=0;whiteSpace=wrap;html=1;fontSize=18;" parent="cFNt4LRYpBDefOqHRxLx-1" vertex="1">
          <mxGeometry x="390" y="510" width="150" height="80" as="geometry" />
        </mxCell>
      </root>
    </mxGraphModel>
  </diagram>
  <diagram name="05 - mfe" id="DkEojB2dHSgf-0FrRHq9">
    <mxGraphModel dx="1434" dy="774" grid="1" gridSize="10" guides="1" tooltips="1" connect="1" arrows="1" fold="1" page="1" pageScale="1" pageWidth="1920" pageHeight="1200" math="0" shadow="0">
      <root>
        <mxCell id="8ht5CKZ2sKBM5UHHchyU-0" />
        <mxCell id="8ht5CKZ2sKBM5UHHchyU-1" parent="8ht5CKZ2sKBM5UHHchyU-0" />
        <mxCell id="FdPt3RnRBamdpTRSqBdM-1" value="" style="rounded=1;whiteSpace=wrap;html=1;shadow=0;strokeColor=#d79b00;strokeWidth=4;fontSize=30;align=left;dashed=1;fillColor=none;" parent="8ht5CKZ2sKBM5UHHchyU-1" vertex="1">
          <mxGeometry x="350" y="250" width="530" height="542" as="geometry" />
        </mxCell>
        <mxCell id="FdPt3RnRBamdpTRSqBdM-3" value="" style="rounded=1;whiteSpace=wrap;html=1;shadow=0;strokeColor=#d79b00;strokeWidth=4;fontSize=30;align=left;dashed=1;fillColor=none;" parent="8ht5CKZ2sKBM5UHHchyU-1" vertex="1">
          <mxGeometry x="980" y="250" width="530" height="542" as="geometry" />
        </mxCell>
        <mxCell id="8ht5CKZ2sKBM5UHHchyU-2" value="" style="strokeWidth=1;shadow=0;dashed=0;align=center;html=1;shape=mxgraph.mockup.containers.browserWindow;rSize=0;strokeColor2=#008cff;strokeColor3=#c4c4c4;mainText=,;recursiveResize=0;strokeColor=#8F8F8F;opacity=80;" parent="8ht5CKZ2sKBM5UHHchyU-1" vertex="1">
          <mxGeometry x="380" y="290" width="460" height="380" as="geometry" />
        </mxCell>
        <mxCell id="8ht5CKZ2sKBM5UHHchyU-3" value="" style="strokeWidth=1;shadow=0;dashed=0;align=center;html=1;shape=mxgraph.mockup.containers.anchor;fontSize=17;fontColor=#666666;align=left;" parent="8ht5CKZ2sKBM5UHHchyU-2" vertex="1">
          <mxGeometry x="60" y="12" width="110" height="26" as="geometry" />
        </mxCell>
        <mxCell id="8ht5CKZ2sKBM5UHHchyU-4" value="app.com" style="strokeWidth=1;shadow=0;dashed=0;align=center;html=1;shape=mxgraph.mockup.containers.anchor;rSize=0;fontSize=17;fontColor=#666666;align=left;" parent="8ht5CKZ2sKBM5UHHchyU-2" vertex="1">
          <mxGeometry x="130" y="60" width="250" height="26" as="geometry" />
        </mxCell>
        <mxCell id="8ht5CKZ2sKBM5UHHchyU-5" value="" style="rounded=0;whiteSpace=wrap;html=1;" parent="8ht5CKZ2sKBM5UHHchyU-2" vertex="1">
          <mxGeometry y="110" width="460" height="40" as="geometry" />
        </mxCell>
        <mxCell id="8ht5CKZ2sKBM5UHHchyU-6" value="My Shop" style="text;html=1;strokeColor=none;fillColor=none;align=center;verticalAlign=middle;whiteSpace=wrap;rounded=0;" parent="8ht5CKZ2sKBM5UHHchyU-2" vertex="1">
          <mxGeometry x="10" y="120" width="60" height="20" as="geometry" />
        </mxCell>
        <mxCell id="8ht5CKZ2sKBM5UHHchyU-7" value="Cart" style="text;html=1;strokeColor=none;fillColor=none;align=center;verticalAlign=middle;whiteSpace=wrap;rounded=0;" parent="8ht5CKZ2sKBM5UHHchyU-2" vertex="1">
          <mxGeometry x="390" y="120" width="60" height="20" as="geometry" />
        </mxCell>
        <mxCell id="8ht5CKZ2sKBM5UHHchyU-8" value="Search..." style="rounded=1;whiteSpace=wrap;html=1;fontStyle=2;align=left;fontColor=#999999;fontSize=10;spacingLeft=4;" parent="8ht5CKZ2sKBM5UHHchyU-2" vertex="1">
          <mxGeometry x="270" y="117.5" width="120" height="25" as="geometry" />
        </mxCell>
        <mxCell id="8ht5CKZ2sKBM5UHHchyU-9" value="" style="rounded=0;whiteSpace=wrap;html=1;strokeWidth=1;fillColor=none;fontSize=10;fontColor=#999999;align=left;strokeColor=#6B6B6B;" parent="8ht5CKZ2sKBM5UHHchyU-2" vertex="1">
          <mxGeometry x="30" y="178" width="120" height="142" as="geometry" />
        </mxCell>
        <mxCell id="8ht5CKZ2sKBM5UHHchyU-10" value="" style="outlineConnect=0;fontColor=#232F3E;gradientColor=none;strokeColor=none;dashed=0;verticalLabelPosition=bottom;verticalAlign=top;align=center;html=1;fontSize=12;fontStyle=0;aspect=fixed;pointerEvents=1;shape=mxgraph.aws4.container_registry_image;strokeWidth=1;fillColor=#6E6E6E;" parent="8ht5CKZ2sKBM5UHHchyU-2" vertex="1">
          <mxGeometry x="60" y="190" width="60" height="60" as="geometry" />
        </mxCell>
        <mxCell id="8ht5CKZ2sKBM5UHHchyU-11" value="Product" style="text;html=1;strokeColor=none;fillColor=none;align=center;verticalAlign=middle;whiteSpace=wrap;rounded=0;fontSize=12;" parent="8ht5CKZ2sKBM5UHHchyU-2" vertex="1">
          <mxGeometry x="40" y="260" width="40" height="20" as="geometry" />
        </mxCell>
        <mxCell id="8ht5CKZ2sKBM5UHHchyU-12" value="$10" style="text;html=1;strokeColor=none;fillColor=none;align=center;verticalAlign=middle;whiteSpace=wrap;rounded=0;fontSize=12;" parent="8ht5CKZ2sKBM5UHHchyU-2" vertex="1">
          <mxGeometry x="105" y="260" width="40" height="20" as="geometry" />
        </mxCell>
        <mxCell id="8ht5CKZ2sKBM5UHHchyU-13" value="Add To Cart" style="rounded=0;whiteSpace=wrap;html=1;strokeWidth=1;fillColor=none;fontSize=11;fontColor=#000000;align=center;" parent="8ht5CKZ2sKBM5UHHchyU-2" vertex="1">
          <mxGeometry x="75" y="290" width="70" height="25" as="geometry" />
        </mxCell>
        <mxCell id="8ht5CKZ2sKBM5UHHchyU-14" value="" style="rounded=0;whiteSpace=wrap;html=1;strokeWidth=1;fillColor=none;fontSize=10;fontColor=#999999;align=left;strokeColor=#6B6B6B;" parent="8ht5CKZ2sKBM5UHHchyU-2" vertex="1">
          <mxGeometry x="170" y="178" width="120" height="142" as="geometry" />
        </mxCell>
        <mxCell id="8ht5CKZ2sKBM5UHHchyU-15" value="" style="outlineConnect=0;fontColor=#232F3E;gradientColor=none;strokeColor=none;dashed=0;verticalLabelPosition=bottom;verticalAlign=top;align=center;html=1;fontSize=12;fontStyle=0;aspect=fixed;pointerEvents=1;shape=mxgraph.aws4.container_registry_image;strokeWidth=1;fillColor=#6E6E6E;" parent="8ht5CKZ2sKBM5UHHchyU-2" vertex="1">
          <mxGeometry x="200" y="190" width="60" height="60" as="geometry" />
        </mxCell>
        <mxCell id="8ht5CKZ2sKBM5UHHchyU-16" value="Product" style="text;html=1;strokeColor=none;fillColor=none;align=center;verticalAlign=middle;whiteSpace=wrap;rounded=0;fontSize=12;" parent="8ht5CKZ2sKBM5UHHchyU-2" vertex="1">
          <mxGeometry x="180" y="260" width="40" height="20" as="geometry" />
        </mxCell>
        <mxCell id="8ht5CKZ2sKBM5UHHchyU-17" value="$10" style="text;html=1;strokeColor=none;fillColor=none;align=center;verticalAlign=middle;whiteSpace=wrap;rounded=0;fontSize=12;" parent="8ht5CKZ2sKBM5UHHchyU-2" vertex="1">
          <mxGeometry x="245" y="260" width="40" height="20" as="geometry" />
        </mxCell>
        <mxCell id="8ht5CKZ2sKBM5UHHchyU-18" value="Add To Cart" style="rounded=0;whiteSpace=wrap;html=1;strokeWidth=1;fillColor=none;fontSize=11;fontColor=#000000;align=center;" parent="8ht5CKZ2sKBM5UHHchyU-2" vertex="1">
          <mxGeometry x="215" y="290" width="70" height="25" as="geometry" />
        </mxCell>
        <mxCell id="8ht5CKZ2sKBM5UHHchyU-19" value="" style="rounded=0;whiteSpace=wrap;html=1;strokeWidth=1;fillColor=none;fontSize=10;fontColor=#999999;align=left;strokeColor=#6B6B6B;" parent="8ht5CKZ2sKBM5UHHchyU-2" vertex="1">
          <mxGeometry x="310" y="178" width="120" height="142" as="geometry" />
        </mxCell>
        <mxCell id="8ht5CKZ2sKBM5UHHchyU-20" value="" style="outlineConnect=0;fontColor=#232F3E;gradientColor=none;strokeColor=none;dashed=0;verticalLabelPosition=bottom;verticalAlign=top;align=center;html=1;fontSize=12;fontStyle=0;aspect=fixed;pointerEvents=1;shape=mxgraph.aws4.container_registry_image;strokeWidth=1;fillColor=#6E6E6E;" parent="8ht5CKZ2sKBM5UHHchyU-2" vertex="1">
          <mxGeometry x="340" y="190" width="60" height="60" as="geometry" />
        </mxCell>
        <mxCell id="8ht5CKZ2sKBM5UHHchyU-21" value="Product" style="text;html=1;strokeColor=none;fillColor=none;align=center;verticalAlign=middle;whiteSpace=wrap;rounded=0;fontSize=12;" parent="8ht5CKZ2sKBM5UHHchyU-2" vertex="1">
          <mxGeometry x="320" y="260" width="40" height="20" as="geometry" />
        </mxCell>
        <mxCell id="8ht5CKZ2sKBM5UHHchyU-22" value="$10" style="text;html=1;strokeColor=none;fillColor=none;align=center;verticalAlign=middle;whiteSpace=wrap;rounded=0;fontSize=12;" parent="8ht5CKZ2sKBM5UHHchyU-2" vertex="1">
          <mxGeometry x="385" y="260" width="40" height="20" as="geometry" />
        </mxCell>
        <mxCell id="8ht5CKZ2sKBM5UHHchyU-23" value="Add To Cart" style="rounded=0;whiteSpace=wrap;html=1;strokeWidth=1;fillColor=none;fontSize=11;fontColor=#000000;align=center;" parent="8ht5CKZ2sKBM5UHHchyU-2" vertex="1">
          <mxGeometry x="355" y="290" width="70" height="25" as="geometry" />
        </mxCell>
        <mxCell id="8ht5CKZ2sKBM5UHHchyU-24" value="" style="strokeWidth=1;shadow=0;dashed=0;align=center;html=1;shape=mxgraph.mockup.containers.browserWindow;rSize=0;strokeColor2=#008cff;strokeColor3=#c4c4c4;mainText=,;recursiveResize=0;strokeColor=#8F8F8F;opacity=80;" parent="8ht5CKZ2sKBM5UHHchyU-1" vertex="1">
          <mxGeometry x="1015" y="290" width="460" height="380" as="geometry" />
        </mxCell>
        <mxCell id="8ht5CKZ2sKBM5UHHchyU-25" value="" style="strokeWidth=1;shadow=0;dashed=0;align=center;html=1;shape=mxgraph.mockup.containers.anchor;fontSize=17;fontColor=#666666;align=left;" parent="8ht5CKZ2sKBM5UHHchyU-24" vertex="1">
          <mxGeometry x="60" y="12" width="110" height="26" as="geometry" />
        </mxCell>
        <mxCell id="8ht5CKZ2sKBM5UHHchyU-26" value="app.com" style="strokeWidth=1;shadow=0;dashed=0;align=center;html=1;shape=mxgraph.mockup.containers.anchor;rSize=0;fontSize=17;fontColor=#666666;align=left;" parent="8ht5CKZ2sKBM5UHHchyU-24" vertex="1">
          <mxGeometry x="130" y="60" width="250" height="26" as="geometry" />
        </mxCell>
        <mxCell id="8ht5CKZ2sKBM5UHHchyU-27" value="" style="rounded=0;whiteSpace=wrap;html=1;" parent="8ht5CKZ2sKBM5UHHchyU-24" vertex="1">
          <mxGeometry y="110" width="460" height="40" as="geometry" />
        </mxCell>
        <mxCell id="8ht5CKZ2sKBM5UHHchyU-28" value="My Shop" style="text;html=1;strokeColor=none;fillColor=none;align=center;verticalAlign=middle;whiteSpace=wrap;rounded=0;" parent="8ht5CKZ2sKBM5UHHchyU-24" vertex="1">
          <mxGeometry x="10" y="120" width="60" height="20" as="geometry" />
        </mxCell>
        <mxCell id="8ht5CKZ2sKBM5UHHchyU-29" value="Cart" style="text;html=1;strokeColor=none;fillColor=none;align=center;verticalAlign=middle;whiteSpace=wrap;rounded=0;" parent="8ht5CKZ2sKBM5UHHchyU-24" vertex="1">
          <mxGeometry x="390" y="120" width="60" height="20" as="geometry" />
        </mxCell>
        <mxCell id="8ht5CKZ2sKBM5UHHchyU-30" value="Search..." style="rounded=1;whiteSpace=wrap;html=1;fontStyle=2;align=left;fontColor=#999999;fontSize=10;spacingLeft=4;" parent="8ht5CKZ2sKBM5UHHchyU-24" vertex="1">
          <mxGeometry x="270" y="117.5" width="120" height="25" as="geometry" />
        </mxCell>
        <mxCell id="8ht5CKZ2sKBM5UHHchyU-31" value="" style="rounded=0;whiteSpace=wrap;html=1;" parent="8ht5CKZ2sKBM5UHHchyU-24" vertex="1">
          <mxGeometry x="40" y="170" width="380" height="40" as="geometry" />
        </mxCell>
        <mxCell id="8ht5CKZ2sKBM5UHHchyU-32" value="Product&amp;nbsp;" style="text;html=1;strokeColor=none;fillColor=none;align=center;verticalAlign=middle;whiteSpace=wrap;rounded=0;" parent="8ht5CKZ2sKBM5UHHchyU-24" vertex="1">
          <mxGeometry x="50" y="180" width="60" height="20" as="geometry" />
        </mxCell>
        <mxCell id="8ht5CKZ2sKBM5UHHchyU-33" value="Qty 1" style="text;html=1;strokeColor=none;fillColor=none;align=center;verticalAlign=middle;whiteSpace=wrap;rounded=0;" parent="8ht5CKZ2sKBM5UHHchyU-24" vertex="1">
          <mxGeometry x="270" y="180" width="60" height="20" as="geometry" />
        </mxCell>
        <mxCell id="8ht5CKZ2sKBM5UHHchyU-34" value="$10" style="text;html=1;strokeColor=none;fillColor=none;align=center;verticalAlign=middle;whiteSpace=wrap;rounded=0;" parent="8ht5CKZ2sKBM5UHHchyU-24" vertex="1">
          <mxGeometry x="350" y="180" width="60" height="20" as="geometry" />
        </mxCell>
        <mxCell id="8ht5CKZ2sKBM5UHHchyU-35" value="" style="rounded=0;whiteSpace=wrap;html=1;" parent="8ht5CKZ2sKBM5UHHchyU-24" vertex="1">
          <mxGeometry x="40" y="210" width="380" height="40" as="geometry" />
        </mxCell>
        <mxCell id="8ht5CKZ2sKBM5UHHchyU-36" value="Product&amp;nbsp;" style="text;html=1;strokeColor=none;fillColor=none;align=center;verticalAlign=middle;whiteSpace=wrap;rounded=0;" parent="8ht5CKZ2sKBM5UHHchyU-24" vertex="1">
          <mxGeometry x="50" y="220" width="60" height="20" as="geometry" />
        </mxCell>
        <mxCell id="8ht5CKZ2sKBM5UHHchyU-37" value="Qty 1" style="text;html=1;strokeColor=none;fillColor=none;align=center;verticalAlign=middle;whiteSpace=wrap;rounded=0;" parent="8ht5CKZ2sKBM5UHHchyU-24" vertex="1">
          <mxGeometry x="270" y="220" width="60" height="20" as="geometry" />
        </mxCell>
        <mxCell id="8ht5CKZ2sKBM5UHHchyU-38" value="$10" style="text;html=1;strokeColor=none;fillColor=none;align=center;verticalAlign=middle;whiteSpace=wrap;rounded=0;" parent="8ht5CKZ2sKBM5UHHchyU-24" vertex="1">
          <mxGeometry x="350" y="220" width="60" height="20" as="geometry" />
        </mxCell>
        <mxCell id="8ht5CKZ2sKBM5UHHchyU-39" value="" style="rounded=0;whiteSpace=wrap;html=1;" parent="8ht5CKZ2sKBM5UHHchyU-24" vertex="1">
          <mxGeometry x="40" y="250" width="380" height="40" as="geometry" />
        </mxCell>
        <mxCell id="8ht5CKZ2sKBM5UHHchyU-40" value="Product&amp;nbsp;" style="text;html=1;strokeColor=none;fillColor=none;align=center;verticalAlign=middle;whiteSpace=wrap;rounded=0;" parent="8ht5CKZ2sKBM5UHHchyU-24" vertex="1">
          <mxGeometry x="50" y="260" width="60" height="20" as="geometry" />
        </mxCell>
        <mxCell id="8ht5CKZ2sKBM5UHHchyU-41" value="Qty 1" style="text;html=1;strokeColor=none;fillColor=none;align=center;verticalAlign=middle;whiteSpace=wrap;rounded=0;" parent="8ht5CKZ2sKBM5UHHchyU-24" vertex="1">
          <mxGeometry x="270" y="260" width="60" height="20" as="geometry" />
        </mxCell>
        <mxCell id="8ht5CKZ2sKBM5UHHchyU-42" value="$10" style="text;html=1;strokeColor=none;fillColor=none;align=center;verticalAlign=middle;whiteSpace=wrap;rounded=0;" parent="8ht5CKZ2sKBM5UHHchyU-24" vertex="1">
          <mxGeometry x="350" y="260" width="60" height="20" as="geometry" />
        </mxCell>
        <mxCell id="8ht5CKZ2sKBM5UHHchyU-43" value="" style="rounded=0;whiteSpace=wrap;html=1;" parent="8ht5CKZ2sKBM5UHHchyU-24" vertex="1">
          <mxGeometry x="240" y="300" width="180" height="40" as="geometry" />
        </mxCell>
        <mxCell id="8ht5CKZ2sKBM5UHHchyU-44" value="Total" style="text;html=1;strokeColor=none;fillColor=none;align=center;verticalAlign=middle;whiteSpace=wrap;rounded=0;fontStyle=1" parent="8ht5CKZ2sKBM5UHHchyU-24" vertex="1">
          <mxGeometry x="270" y="310" width="60" height="20" as="geometry" />
        </mxCell>
        <mxCell id="8ht5CKZ2sKBM5UHHchyU-45" value="$30" style="text;html=1;strokeColor=none;fillColor=none;align=center;verticalAlign=middle;whiteSpace=wrap;rounded=0;" parent="8ht5CKZ2sKBM5UHHchyU-24" vertex="1">
          <mxGeometry x="350" y="310" width="60" height="20" as="geometry" />
        </mxCell>
        <mxCell id="8ht5CKZ2sKBM5UHHchyU-46" value="Shopping Cart" style="rounded=0;whiteSpace=wrap;html=1;strokeColor=#666666;strokeWidth=1;fillColor=#f5f5f5;fontSize=30;align=center;fontStyle=0;shadow=1;fontColor=#333333;" parent="8ht5CKZ2sKBM5UHHchyU-1" vertex="1">
          <mxGeometry x="1065" y="680" width="360" height="60" as="geometry" />
        </mxCell>
        <mxCell id="8ht5CKZ2sKBM5UHHchyU-47" value="Product Listing" style="rounded=0;whiteSpace=wrap;html=1;strokeColor=#666666;strokeWidth=1;fillColor=#f5f5f5;fontSize=30;align=center;fontStyle=0;shadow=1;fontColor=#333333;" parent="8ht5CKZ2sKBM5UHHchyU-1" vertex="1">
          <mxGeometry x="430" y="680" width="360" height="60" as="geometry" />
        </mxCell>
        <mxCell id="FdPt3RnRBamdpTRSqBdM-4" value="Major Feature #1" style="rounded=0;whiteSpace=wrap;html=1;shadow=0;strokeColor=#d79b00;strokeWidth=2;fillColor=#ffe6cc;fontSize=31;align=center;" parent="8ht5CKZ2sKBM5UHHchyU-1" vertex="1">
          <mxGeometry x="435" y="180" width="350" height="60" as="geometry" />
        </mxCell>
        <mxCell id="FdPt3RnRBamdpTRSqBdM-5" value="Major Feature #2" style="rounded=0;whiteSpace=wrap;html=1;shadow=0;strokeColor=#d79b00;strokeWidth=2;fillColor=#ffe6cc;fontSize=31;align=center;" parent="8ht5CKZ2sKBM5UHHchyU-1" vertex="1">
          <mxGeometry x="1070" y="180" width="350" height="60" as="geometry" />
        </mxCell>
      </root>
    </mxGraphModel>
  </diagram>
  <diagram name="06 - mfe" id="785h-NVDfwjWVqcfNvSZ">
    <mxGraphModel dx="819" dy="442" grid="1" gridSize="10" guides="1" tooltips="1" connect="1" arrows="1" fold="1" page="1" pageScale="1" pageWidth="1920" pageHeight="1200" math="0" shadow="0">
      <root>
        <mxCell id="fFRrqXvAJrhkZdk49VDO-0" />
        <mxCell id="fFRrqXvAJrhkZdk49VDO-1" parent="fFRrqXvAJrhkZdk49VDO-0" />
        <mxCell id="BPiJba5SDGCxzTz2UJSX-0" value="React/Vue/Angular&lt;br style=&quot;font-size: 18px&quot;&gt;Single Page Application" style="rounded=0;whiteSpace=wrap;html=1;fontSize=18;fontStyle=1;fillColor=#dae8fc;strokeColor=#6c8ebf;shadow=1;" parent="fFRrqXvAJrhkZdk49VDO-1" vertex="1">
          <mxGeometry x="360" y="420" width="240" height="60" as="geometry" />
        </mxCell>
        <mxCell id="BPiJba5SDGCxzTz2UJSX-1" value="" style="rounded=0;whiteSpace=wrap;html=1;fontSize=14;fillColor=#f5f5f5;strokeColor=#666666;fontColor=#333333;shadow=1;" parent="fFRrqXvAJrhkZdk49VDO-1" vertex="1">
          <mxGeometry x="360" y="480" width="240" height="100" as="geometry" />
        </mxCell>
        <mxCell id="BPiJba5SDGCxzTz2UJSX-4" value="ProductListing" style="rounded=0;whiteSpace=wrap;html=1;fontSize=18;" parent="fFRrqXvAJrhkZdk49VDO-1" vertex="1">
          <mxGeometry x="405" y="490" width="150" height="80" as="geometry" />
        </mxCell>
        <mxCell id="BPiJba5SDGCxzTz2UJSX-5" value="React/Vue/Angular&lt;br style=&quot;font-size: 18px&quot;&gt;Single Page Application" style="rounded=0;whiteSpace=wrap;html=1;fontSize=18;fontStyle=1;fillColor=#dae8fc;strokeColor=#6c8ebf;shadow=1;" parent="fFRrqXvAJrhkZdk49VDO-1" vertex="1">
          <mxGeometry x="680" y="420" width="240" height="60" as="geometry" />
        </mxCell>
        <mxCell id="BPiJba5SDGCxzTz2UJSX-6" value="" style="rounded=0;whiteSpace=wrap;html=1;fontSize=14;fillColor=#f5f5f5;strokeColor=#666666;fontColor=#333333;shadow=1;" parent="fFRrqXvAJrhkZdk49VDO-1" vertex="1">
          <mxGeometry x="680" y="480" width="240" height="100" as="geometry" />
        </mxCell>
        <mxCell id="BPiJba5SDGCxzTz2UJSX-7" value="ShoppingCart" style="rounded=0;whiteSpace=wrap;html=1;fontSize=18;" parent="fFRrqXvAJrhkZdk49VDO-1" vertex="1">
          <mxGeometry x="725" y="490" width="150" height="80" as="geometry" />
        </mxCell>
      </root>
    </mxGraphModel>
  </diagram>
  <diagram name="08 - cross" id="WfxFuBrU9HVsNqhllChP">
    <mxGraphModel dx="1434" dy="774" grid="1" gridSize="10" guides="1" tooltips="1" connect="1" arrows="1" fold="1" page="1" pageScale="1" pageWidth="1920" pageHeight="1200" math="0" shadow="0">
      <root>
        <mxCell id="QVr0Z0q7EtqyddajL5PT-0" />
        <mxCell id="QVr0Z0q7EtqyddajL5PT-1" parent="QVr0Z0q7EtqyddajL5PT-0" />
        <mxCell id="QVr0Z0q7EtqyddajL5PT-2" value="SPA" style="rounded=0;whiteSpace=wrap;html=1;fontSize=15;fontStyle=0;fillColor=#dae8fc;strokeColor=#6c8ebf;shadow=1;" parent="QVr0Z0q7EtqyddajL5PT-1" vertex="1">
          <mxGeometry x="720" y="440" width="240" height="40" as="geometry" />
        </mxCell>
        <mxCell id="QVr0Z0q7EtqyddajL5PT-3" value="SPA" style="rounded=0;whiteSpace=wrap;html=1;fontSize=15;fontStyle=0;fillColor=#dae8fc;strokeColor=#6c8ebf;shadow=1;" parent="QVr0Z0q7EtqyddajL5PT-1" vertex="1">
          <mxGeometry x="330" y="440" width="240" height="40" as="geometry" />
        </mxCell>
        <mxCell id="QVr0Z0q7EtqyddajL5PT-13" style="edgeStyle=orthogonalEdgeStyle;rounded=0;orthogonalLoop=1;jettySize=auto;html=1;exitX=1;exitY=0.5;exitDx=0;exitDy=0;strokeWidth=4;fontSize=15;fontColor=#000000;startArrow=classic;startFill=1;" parent="QVr0Z0q7EtqyddajL5PT-1" source="QVr0Z0q7EtqyddajL5PT-6" target="QVr0Z0q7EtqyddajL5PT-9" edge="1">
          <mxGeometry relative="1" as="geometry" />
        </mxCell>
        <mxCell id="QVr0Z0q7EtqyddajL5PT-6" value="" style="rounded=0;whiteSpace=wrap;html=1;fontSize=14;fillColor=#f5f5f5;strokeColor=#666666;fontColor=#333333;shadow=1;" parent="QVr0Z0q7EtqyddajL5PT-1" vertex="1">
          <mxGeometry x="330" y="480" width="240" height="100" as="geometry" />
        </mxCell>
        <mxCell id="QVr0Z0q7EtqyddajL5PT-7" value="ProductListing" style="rounded=0;whiteSpace=wrap;html=1;fontSize=18;" parent="QVr0Z0q7EtqyddajL5PT-1" vertex="1">
          <mxGeometry x="375" y="490" width="150" height="80" as="geometry" />
        </mxCell>
        <mxCell id="QVr0Z0q7EtqyddajL5PT-9" value="" style="rounded=0;whiteSpace=wrap;html=1;fontSize=14;fillColor=#f5f5f5;strokeColor=#666666;fontColor=#333333;shadow=1;" parent="QVr0Z0q7EtqyddajL5PT-1" vertex="1">
          <mxGeometry x="720" y="480" width="240" height="100" as="geometry" />
        </mxCell>
        <mxCell id="QVr0Z0q7EtqyddajL5PT-10" value="ShoppingCart" style="rounded=0;whiteSpace=wrap;html=1;fontSize=18;" parent="QVr0Z0q7EtqyddajL5PT-1" vertex="1">
          <mxGeometry x="765" y="490" width="150" height="80" as="geometry" />
        </mxCell>
        <mxCell id="QVr0Z0q7EtqyddajL5PT-14" value="X" style="text;html=1;strokeColor=none;fillColor=none;align=center;verticalAlign=middle;whiteSpace=wrap;rounded=0;shadow=0;fontSize=64;fontColor=#FF3333;fontStyle=1" parent="QVr0Z0q7EtqyddajL5PT-1" vertex="1">
          <mxGeometry x="591" y="492.5" width="110" height="75" as="geometry" />
        </mxCell>
      </root>
    </mxGraphModel>
  </diagram>
  <diagram name="07 - api" id="U5ZqnqdaUKUiF8zHaZRn">
    <mxGraphModel dx="1434" dy="774" grid="1" gridSize="10" guides="1" tooltips="1" connect="1" arrows="1" fold="1" page="1" pageScale="1" pageWidth="1920" pageHeight="1200" math="0" shadow="0">
      <root>
        <mxCell id="MAZSYPS7kiq4MQbEabZn-0" />
        <mxCell id="MAZSYPS7kiq4MQbEabZn-1" parent="MAZSYPS7kiq4MQbEabZn-0" />
        <mxCell id="Zn96xOHLpFGZLUdee_j4-1" value="SPA" style="rounded=0;whiteSpace=wrap;html=1;fontSize=15;fontStyle=0;fillColor=#dae8fc;strokeColor=#6c8ebf;shadow=1;" parent="MAZSYPS7kiq4MQbEabZn-1" vertex="1">
          <mxGeometry x="700" y="440" width="240" height="40" as="geometry" />
        </mxCell>
        <mxCell id="MAZSYPS7kiq4MQbEabZn-2" value="SPA" style="rounded=0;whiteSpace=wrap;html=1;fontSize=15;fontStyle=0;fillColor=#dae8fc;strokeColor=#6c8ebf;shadow=1;" parent="MAZSYPS7kiq4MQbEabZn-1" vertex="1">
          <mxGeometry x="360" y="440" width="240" height="40" as="geometry" />
        </mxCell>
        <mxCell id="Zn96xOHLpFGZLUdee_j4-3" style="edgeStyle=orthogonalEdgeStyle;rounded=0;orthogonalLoop=1;jettySize=auto;html=1;exitX=0.5;exitY=1;exitDx=0;exitDy=0;fontSize=15;fontColor=#000000;strokeWidth=2;" parent="MAZSYPS7kiq4MQbEabZn-1" source="MAZSYPS7kiq4MQbEabZn-3" target="Zn96xOHLpFGZLUdee_j4-0" edge="1">
          <mxGeometry relative="1" as="geometry" />
        </mxCell>
        <mxCell id="Zn96xOHLpFGZLUdee_j4-4" style="edgeStyle=orthogonalEdgeStyle;rounded=0;orthogonalLoop=1;jettySize=auto;html=1;exitX=0.5;exitY=1;exitDx=0;exitDy=0;entryX=0.25;entryY=0;entryDx=0;entryDy=0;fontSize=15;fontColor=#000000;strokeWidth=2;" parent="MAZSYPS7kiq4MQbEabZn-1" source="MAZSYPS7kiq4MQbEabZn-3" target="Zn96xOHLpFGZLUdee_j4-2" edge="1">
          <mxGeometry relative="1" as="geometry" />
        </mxCell>
        <mxCell id="MAZSYPS7kiq4MQbEabZn-3" value="" style="rounded=0;whiteSpace=wrap;html=1;fontSize=14;fillColor=#f5f5f5;strokeColor=#666666;fontColor=#333333;shadow=1;" parent="MAZSYPS7kiq4MQbEabZn-1" vertex="1">
          <mxGeometry x="360" y="480" width="240" height="100" as="geometry" />
        </mxCell>
        <mxCell id="MAZSYPS7kiq4MQbEabZn-4" value="ProductListing" style="rounded=0;whiteSpace=wrap;html=1;fontSize=18;" parent="MAZSYPS7kiq4MQbEabZn-1" vertex="1">
          <mxGeometry x="405" y="490" width="150" height="80" as="geometry" />
        </mxCell>
        <mxCell id="Zn96xOHLpFGZLUdee_j4-5" style="edgeStyle=orthogonalEdgeStyle;rounded=0;orthogonalLoop=1;jettySize=auto;html=1;exitX=0.5;exitY=1;exitDx=0;exitDy=0;fontSize=15;fontColor=#000000;strokeWidth=2;" parent="MAZSYPS7kiq4MQbEabZn-1" source="MAZSYPS7kiq4MQbEabZn-6" target="Zn96xOHLpFGZLUdee_j4-2" edge="1">
          <mxGeometry relative="1" as="geometry" />
        </mxCell>
        <mxCell id="MAZSYPS7kiq4MQbEabZn-6" value="" style="rounded=0;whiteSpace=wrap;html=1;fontSize=14;fillColor=#f5f5f5;strokeColor=#666666;fontColor=#333333;shadow=1;" parent="MAZSYPS7kiq4MQbEabZn-1" vertex="1">
          <mxGeometry x="700" y="480" width="240" height="100" as="geometry" />
        </mxCell>
        <mxCell id="MAZSYPS7kiq4MQbEabZn-7" value="ShoppingCart" style="rounded=0;whiteSpace=wrap;html=1;fontSize=18;" parent="MAZSYPS7kiq4MQbEabZn-1" vertex="1">
          <mxGeometry x="745" y="490" width="150" height="80" as="geometry" />
        </mxCell>
        <mxCell id="Zn96xOHLpFGZLUdee_j4-0" value="API for Retrieving Products" style="rounded=0;whiteSpace=wrap;html=1;fontSize=18;fontStyle=1;fillColor=#ffe6cc;strokeColor=#d79b00;shadow=1;" parent="MAZSYPS7kiq4MQbEabZn-1" vertex="1">
          <mxGeometry x="430" y="680" width="210" height="80" as="geometry" />
        </mxCell>
        <mxCell id="Zn96xOHLpFGZLUdee_j4-2" value="API for Managing Shopping Cart" style="rounded=0;whiteSpace=wrap;html=1;fontSize=18;fontStyle=1;fillColor=#ffe6cc;strokeColor=#d79b00;shadow=1;" parent="MAZSYPS7kiq4MQbEabZn-1" vertex="1">
          <mxGeometry x="660" y="680" width="210" height="80" as="geometry" />
        </mxCell>
      </root>
    </mxGraphModel>
  </diagram>
  <diagram name="09 - teams" id="W88yJpWi8sQBqc7935oD">
    <mxGraphModel dx="1195" dy="645" grid="1" gridSize="10" guides="1" tooltips="1" connect="1" arrows="1" fold="1" page="1" pageScale="1" pageWidth="1920" pageHeight="1200" math="0" shadow="0">
      <root>
        <mxCell id="_SiwUsOvIF1wBRh_wOWw-0" />
        <mxCell id="_SiwUsOvIF1wBRh_wOWw-1" parent="_SiwUsOvIF1wBRh_wOWw-0" />
        <mxCell id="o_6fqzqagn0ZQDcpVigQ-0" value="" style="rounded=1;whiteSpace=wrap;html=1;shadow=0;strokeColor=#d79b00;strokeWidth=4;fontSize=30;align=left;dashed=1;fillColor=none;" parent="_SiwUsOvIF1wBRh_wOWw-1" vertex="1">
          <mxGeometry x="310" y="460" width="290" height="140" as="geometry" />
        </mxCell>
        <mxCell id="o_6fqzqagn0ZQDcpVigQ-1" value="" style="rounded=1;whiteSpace=wrap;html=1;shadow=0;strokeColor=#d79b00;strokeWidth=4;fontSize=30;align=left;dashed=1;fillColor=none;" parent="_SiwUsOvIF1wBRh_wOWw-1" vertex="1">
          <mxGeometry x="695" y="460" width="290" height="135" as="geometry" />
        </mxCell>
        <mxCell id="_SiwUsOvIF1wBRh_wOWw-3" value="REACT&lt;br&gt;SPA" style="rounded=0;whiteSpace=wrap;html=1;fontSize=15;fontStyle=0;fillColor=#dae8fc;strokeColor=#6c8ebf;shadow=1;" parent="_SiwUsOvIF1wBRh_wOWw-1" vertex="1">
          <mxGeometry x="330" y="480" width="240" height="40" as="geometry" />
        </mxCell>
        <mxCell id="_SiwUsOvIF1wBRh_wOWw-4" style="edgeStyle=orthogonalEdgeStyle;rounded=0;orthogonalLoop=1;jettySize=auto;html=1;exitX=0.5;exitY=1;exitDx=0;exitDy=0;fontSize=15;fontColor=#000000;strokeWidth=1;" parent="_SiwUsOvIF1wBRh_wOWw-1" source="_SiwUsOvIF1wBRh_wOWw-7" target="_SiwUsOvIF1wBRh_wOWw-12" edge="1">
          <mxGeometry relative="1" as="geometry" />
        </mxCell>
        <mxCell id="_SiwUsOvIF1wBRh_wOWw-5" style="edgeStyle=orthogonalEdgeStyle;rounded=0;orthogonalLoop=1;jettySize=auto;html=1;exitX=0.5;exitY=1;exitDx=0;exitDy=0;entryX=0.25;entryY=0;entryDx=0;entryDy=0;fontSize=15;fontColor=#000000;strokeWidth=1;" parent="_SiwUsOvIF1wBRh_wOWw-1" source="_SiwUsOvIF1wBRh_wOWw-7" target="_SiwUsOvIF1wBRh_wOWw-13" edge="1">
          <mxGeometry relative="1" as="geometry" />
        </mxCell>
        <mxCell id="_SiwUsOvIF1wBRh_wOWw-7" value="" style="rounded=0;whiteSpace=wrap;html=1;fontSize=14;fillColor=#f5f5f5;strokeColor=#666666;fontColor=#333333;shadow=1;" parent="_SiwUsOvIF1wBRh_wOWw-1" vertex="1">
          <mxGeometry x="330" y="520" width="240" height="60" as="geometry" />
        </mxCell>
        <mxCell id="_SiwUsOvIF1wBRh_wOWw-8" value="ProductListing" style="rounded=0;whiteSpace=wrap;html=1;fontSize=18;" parent="_SiwUsOvIF1wBRh_wOWw-1" vertex="1">
          <mxGeometry x="375" y="530" width="150" height="40" as="geometry" />
        </mxCell>
        <mxCell id="_SiwUsOvIF1wBRh_wOWw-9" style="edgeStyle=orthogonalEdgeStyle;rounded=0;orthogonalLoop=1;jettySize=auto;html=1;exitX=0.5;exitY=1;exitDx=0;exitDy=0;fontSize=15;fontColor=#000000;strokeWidth=1;" parent="_SiwUsOvIF1wBRh_wOWw-1" target="_SiwUsOvIF1wBRh_wOWw-13" edge="1">
          <mxGeometry relative="1" as="geometry">
            <mxPoint x="840" y="580" as="sourcePoint" />
          </mxGeometry>
        </mxCell>
        <mxCell id="_SiwUsOvIF1wBRh_wOWw-12" value="API for Retrieving Products" style="rounded=0;whiteSpace=wrap;html=1;fontSize=18;fontStyle=0;fillColor=#f5f5f5;strokeColor=#666666;shadow=1;fontColor=#333333;" parent="_SiwUsOvIF1wBRh_wOWw-1" vertex="1">
          <mxGeometry x="430" y="670" width="210" height="50" as="geometry" />
        </mxCell>
        <mxCell id="_SiwUsOvIF1wBRh_wOWw-13" value="API for Managing Shopping Cart" style="rounded=0;whiteSpace=wrap;html=1;fontSize=18;fontStyle=0;fillColor=#f5f5f5;strokeColor=#666666;shadow=1;fontColor=#333333;" parent="_SiwUsOvIF1wBRh_wOWw-1" vertex="1">
          <mxGeometry x="660" y="670" width="210" height="50" as="geometry" />
        </mxCell>
        <mxCell id="_SiwUsOvIF1wBRh_wOWw-16" value="Engineering Team #1" style="rounded=0;whiteSpace=wrap;html=1;fontSize=24;fillColor=#ffe6cc;strokeColor=#d79b00;fontStyle=1" parent="_SiwUsOvIF1wBRh_wOWw-1" vertex="1">
          <mxGeometry x="337.5" y="370" width="225" height="80" as="geometry" />
        </mxCell>
        <mxCell id="_SiwUsOvIF1wBRh_wOWw-17" value="Engineering Team #2" style="rounded=0;whiteSpace=wrap;html=1;fontSize=24;fillColor=#ffe6cc;strokeColor=#d79b00;fontStyle=1" parent="_SiwUsOvIF1wBRh_wOWw-1" vertex="1">
          <mxGeometry x="727.5" y="370" width="225" height="80" as="geometry" />
        </mxCell>
        <mxCell id="o_6fqzqagn0ZQDcpVigQ-2" value="ANGULAR&lt;br&gt;SPA" style="rounded=0;whiteSpace=wrap;html=1;fontSize=15;fontStyle=0;fillColor=#dae8fc;strokeColor=#6c8ebf;shadow=1;" parent="_SiwUsOvIF1wBRh_wOWw-1" vertex="1">
          <mxGeometry x="720" y="480" width="240" height="40" as="geometry" />
        </mxCell>
        <mxCell id="o_6fqzqagn0ZQDcpVigQ-3" value="" style="rounded=0;whiteSpace=wrap;html=1;fontSize=14;fillColor=#f5f5f5;strokeColor=#666666;fontColor=#333333;shadow=1;" parent="_SiwUsOvIF1wBRh_wOWw-1" vertex="1">
          <mxGeometry x="720" y="520" width="240" height="60" as="geometry" />
        </mxCell>
        <mxCell id="o_6fqzqagn0ZQDcpVigQ-4" value="ShoppingCart" style="rounded=0;whiteSpace=wrap;html=1;fontSize=18;" parent="_SiwUsOvIF1wBRh_wOWw-1" vertex="1">
          <mxGeometry x="765" y="530" width="150" height="40" as="geometry" />
        </mxCell>
      </root>
    </mxGraphModel>
  </diagram>
  <diagram id="Smfc5Bbk2utaSCusyo37" name="10 - sum">
    <mxGraphModel dx="1434" dy="774" grid="1" gridSize="10" guides="1" tooltips="1" connect="1" arrows="1" fold="1" page="1" pageScale="1" pageWidth="1920" pageHeight="1200" math="0" shadow="0">
      <root>
        <mxCell id="uioqz5vTsO5pn3_DuEaw-0" />
        <mxCell id="uioqz5vTsO5pn3_DuEaw-1" parent="uioqz5vTsO5pn3_DuEaw-0" />
        <mxCell id="uioqz5vTsO5pn3_DuEaw-3" value="What are microfrontends?" style="rounded=1;whiteSpace=wrap;html=1;fontSize=15;fillColor=#f5f5f5;strokeColor=#666666;fontColor=#333333;" parent="uioqz5vTsO5pn3_DuEaw-1" vertex="1">
          <mxGeometry x="580" y="365" width="120" height="60" as="geometry" />
        </mxCell>
        <mxCell id="uioqz5vTsO5pn3_DuEaw-6" value="Divide a &lt;i style=&quot;font-size: 13px;&quot;&gt;monolithic&lt;/i&gt;&amp;nbsp;app into multiple, smaller apps" style="rounded=0;whiteSpace=wrap;html=1;fontSize=13;fillColor=#dae8fc;strokeColor=#6c8ebf;shadow=1;" parent="uioqz5vTsO5pn3_DuEaw-1" vertex="1">
          <mxGeometry x="730" y="350" width="290" height="40" as="geometry" />
        </mxCell>
        <mxCell id="uioqz5vTsO5pn3_DuEaw-7" value="Each smaller app is responsible for a distinct feature of the product" style="rounded=0;whiteSpace=wrap;html=1;fontSize=13;fillColor=#dae8fc;strokeColor=#6c8ebf;shadow=1;" parent="uioqz5vTsO5pn3_DuEaw-1" vertex="1">
          <mxGeometry x="730" y="400" width="290" height="40" as="geometry" />
        </mxCell>
        <mxCell id="uioqz5vTsO5pn3_DuEaw-8" value="" style="shape=curlyBracket;whiteSpace=wrap;html=1;rounded=1;shadow=0;fontSize=13;" parent="uioqz5vTsO5pn3_DuEaw-1" vertex="1">
          <mxGeometry x="700" y="350" width="25" height="90" as="geometry" />
        </mxCell>
        <mxCell id="uioqz5vTsO5pn3_DuEaw-9" value="Why use them?" style="rounded=1;whiteSpace=wrap;html=1;fontSize=15;fillColor=#f5f5f5;strokeColor=#666666;fontColor=#333333;" parent="uioqz5vTsO5pn3_DuEaw-1" vertex="1">
          <mxGeometry x="580" y="495" width="120" height="60" as="geometry" />
        </mxCell>
        <mxCell id="uioqz5vTsO5pn3_DuEaw-10" value="Multiple engineering teams can work in isolation" style="rounded=0;whiteSpace=wrap;html=1;fontSize=13;fillColor=#dae8fc;strokeColor=#6c8ebf;shadow=1;" parent="uioqz5vTsO5pn3_DuEaw-1" vertex="1">
          <mxGeometry x="730" y="480" width="290" height="40" as="geometry" />
        </mxCell>
        <mxCell id="uioqz5vTsO5pn3_DuEaw-11" value="Each smaller app is easier to understand and make changes to" style="rounded=0;whiteSpace=wrap;html=1;fontSize=13;fillColor=#dae8fc;strokeColor=#6c8ebf;shadow=1;" parent="uioqz5vTsO5pn3_DuEaw-1" vertex="1">
          <mxGeometry x="730" y="530" width="290" height="40" as="geometry" />
        </mxCell>
        <mxCell id="uioqz5vTsO5pn3_DuEaw-12" value="" style="shape=curlyBracket;whiteSpace=wrap;html=1;rounded=1;shadow=0;fontSize=13;" parent="uioqz5vTsO5pn3_DuEaw-1" vertex="1">
          <mxGeometry x="700" y="480" width="25" height="90" as="geometry" />
        </mxCell>
      </root>
    </mxGraphModel>
  </diagram>
</mxfile>
